<svg xmlns="http://www.w3.org/2000/svg" viewBox="0 0 164.42 137.37"><defs><style>.cls-1{fill:#1b1918;}.cls-1,.cls-3,.cls-6{fill-rule:evenodd;}.cls-2,.cls-4{fill:none;stroke-miterlimit:7.66;stroke-width:0.57px;}.cls-2{stroke:#1b1918;}.cls-3{fill:#e30016;}.cls-4{stroke:#e30016;}.cls-5{font-size:32px;font-family:C39HrP24DlTt;letter-spacing:-0.04em;}.cls-6{fill:#e20613;stroke:#e20613;stroke-miterlimit:22.93;stroke-width:0.14px;}</style></defs><title>beSTORE2</title><g id="Livello_2" data-name="Livello 2"><g id="Livello_1-2" data-name="Livello 1"><polygon class="cls-1" points="7.84 64.18 79.74 0.38 151.44 64.38 144.14 72.68 79.54 15.28 15.14 72.48 7.84 64.18"/><polygon class="cls-2" points="7.84 64.18 79.74 0.38 151.44 64.38 144.14 72.68 79.54 15.28 15.14 72.48 7.84 64.18"/><polygon class="cls-3" points="28.14 70.88 79.64 25.18 129.94 70.18 130.24 96.28 121.44 96.38 121.44 76.58 79.64 36.48 34.34 77.68 28.14 70.88"/><polygon class="cls-4" points="28.14 70.88 79.64 25.18 129.94 70.18 130.24 96.28 121.44 96.38 121.44 76.58 79.64 36.48 34.34 77.68 28.14 70.88"/><polygon class="cls-3" points="29.74 9.78 46.84 9.78 46.84 20.48 29.94 37.18 29.94 9.78 29.74 9.78"/><text class="cls-5" transform="translate(55.14 129.91)">STORE</text><path class="cls-6" d="M14.62,111.72c2.47-2.09,4.69-3.12,6.65-3.12a3.62,3.62,0,0,1,3,1.52,4.78,4.78,0,0,1,1.08,3.12,20.51,20.51,0,0,1-2.21,8.21,34.06,34.06,0,0,1-7.16,10c-2.57,2.54-5,3.81-7.36,3.81a5.83,5.83,0,0,1-2.37-.47,5.6,5.6,0,0,1-1.89-1.43c-.22.4-.37.66-.43.78a12.61,12.61,0,0,1-1,1.94,1.12,1.12,0,0,1-.89.34,2,2,0,0,1-1.48-.92,2.08,2.08,0,0,1-.47-1.3c0-.8,1.66-4.9,5-12.27a300.55,300.55,0,0,1,16.13-30.7q3.74-6.23,4.56-7.32c.6-.85,1.17-1.3,1.7-1.3a2.18,2.18,0,0,1,1.7,1,2.27,2.27,0,0,1,.47,1.42,4.88,4.88,0,0,1-.83,2.31c-.1.19-1,1.69-2.72,4.45a165.24,165.24,0,0,0-11.44,20ZM6,129.21a5.33,5.33,0,0,0,1.33,1.32,2.64,2.64,0,0,0,1.41.43q3.79,0,8-6.57a31.25,31.25,0,0,0,3.07-5.87,12.27,12.27,0,0,0,1-3.87,1.83,1.83,0,0,0-.39-1.29,1.58,1.58,0,0,0-1.22-.41c-1.33,0-2.95.91-4.82,2.73a31.28,31.28,0,0,0-5.56,7.79C8,125.1,7.21,126.62,6.58,128c-.37.79-.57,1.17-.57,1.17Zm24.25-3.05a22.53,22.53,0,0,0,13.15-9.56A11.32,11.32,0,0,0,45.52,111a2.9,2.9,0,0,0-1.12-2.38,3.32,3.32,0,0,0-2-.7q-4.15,0-9.73,5.71-6.9,7-6.89,14.32A6.58,6.58,0,0,0,27,132.17a6.37,6.37,0,0,0,5.13,2.25,14.48,14.48,0,0,0,6.85-2,31.84,31.84,0,0,0,6.93-5.16q4.16-4,4.16-5.72a1.29,1.29,0,0,0-1.12-1.13c-.58,0-1.29.48-2.13,1.42q-7.1,8.33-12.53,8.33a4,4,0,0,1-3.54-1.58,2.82,2.82,0,0,1-.48-1.65v-.77Zm1-3.37a22.22,22.22,0,0,1,6.18-8.68c1.39-1.13,2.45-1.7,3.19-1.7.55,0,.83.3.83.88a3.69,3.69,0,0,1-.65,1.86A19.08,19.08,0,0,1,36,120.44,17,17,0,0,1,31.24,122.79Z"/></g></g></svg>