<svg xmlns="http://www.w3.org/2000/svg" viewBox="0 0 144.31 128.41"><defs><style>.cls-1,.cls-4{fill:#1d1d1b;}.cls-1{stroke:#1d1d1b;}.cls-1,.cls-2{stroke-miterlimit:22.93;stroke-width:0.57px;}.cls-1,.cls-2,.cls-3{fill-rule:evenodd;}.cls-2,.cls-3,.cls-5{fill:#e30613;}.cls-2,.cls-5{stroke:#e30613;}.cls-5{stroke-miterlimit:5;stroke-width:0.22px;}</style></defs><title>Risorsa 3hdpi</title><g id="Livello_2" data-name="Livello 2"><g id="Livello_1-2" data-name="Livello 1"><polygon class="cls-1" points="0.4 64.21 72.3 0.38 143.91 64.4 136.61 72.63 72.05 15.31 7.7 72.44 0.4 64.21"/><polygon class="cls-2" points="20.65 70.91 72.16 25.18 122.45 70.16 122.76 96.25 113.95 96.43 113.95 76.56 72.16 36.5 26.84 77.69 20.65 70.91"/><polygon class="cls-3" points="22.21 9.81 39.32 9.81 39.32 20.5 22.45 37.19 22.45 9.81 22.21 9.81"/><path class="cls-4" d="M63.48,103.84,63.17,108a14,14,0,0,0-2.38-.82,9.44,9.44,0,0,0-2.15-.27,4,4,0,0,0-2.37.61,2.08,2.08,0,0,0-.83,1.75,2.42,2.42,0,0,0,.7,1.76A10.88,10.88,0,0,0,59,112.78,13.27,13.27,0,0,1,63.69,116a6.3,6.3,0,0,1,1.06,3.81,6.66,6.66,0,0,1-2.2,5.28,8.77,8.77,0,0,1-6,1.94,17.06,17.06,0,0,1-2.77-.25,27.74,27.74,0,0,1-3.14-.76l.41-4.17a15.1,15.1,0,0,0,2.77,1.06,9.76,9.76,0,0,0,2.51.34,3.8,3.8,0,0,0,2.46-.72,2.45,2.45,0,0,0,.89-2q0-1.8-3.7-3.68l-.68-.34a10.63,10.63,0,0,1-3.91-2.87,6,6,0,0,1-1-3.55,6.43,6.43,0,0,1,2.14-5.11,8.77,8.77,0,0,1,5.94-1.86,15.49,15.49,0,0,1,2.4.19A20.21,20.21,0,0,1,63.48,103.84Z"/><path class="cls-4" d="M66.51,103.48H81.92v4.14h-5v19H71.55v-19h-5Z"/><path class="cls-4" d="M93.57,103.07a8.82,8.82,0,0,1,7.21,3.16q2.59,3.17,2.59,8.81t-2.59,8.82a9.88,9.88,0,0,1-14.45,0q-2.56-3.14-2.57-8.82t2.59-8.81A8.84,8.84,0,0,1,93.57,103.07Zm0,3.91a3.36,3.36,0,0,0-3.09,2.1,13.3,13.3,0,0,0-1.08,6,13.27,13.27,0,0,0,1.08,6,3.32,3.32,0,0,0,6.17,0,13.25,13.25,0,0,0,1.09-6,13.13,13.13,0,0,0-1.1-6A3.36,3.36,0,0,0,93.57,107Z"/><path class="cls-4" d="M106.91,103.48h5.47l.86,0h.47c3,0,5.09.49,6.43,1.49a5.5,5.5,0,0,1,2,4.74A5.43,5.43,0,0,1,121,113.2a5.67,5.67,0,0,1-3.22,1.91,3.07,3.07,0,0,1,1.65,1,8.44,8.44,0,0,1,1.25,2.7l2.54,7.83h-5.47l-1.85-6.56a5.23,5.23,0,0,0-1.08-2.35,2.43,2.43,0,0,0-1.75-.57h-1v9.48h-5.21Zm5.21,3.86v5.94h1.12a4.59,4.59,0,0,0,2.85-.68,2.64,2.64,0,0,0,.86-2.21,3,3,0,0,0-.78-2.37,4.5,4.5,0,0,0-2.85-.68Z"/><path class="cls-4" d="M125.82,103.48H139v3.86h-7.86v5.54h7.44v3.87h-7.44v6h8.24v3.9H125.82Z"/><path class="cls-5" d="M18,106.79q3.22-2.73,5.79-2.73a3.17,3.17,0,0,1,2.62,1.33,4.21,4.21,0,0,1,.94,2.73,17.81,17.81,0,0,1-1.93,7.16A29.69,29.69,0,0,1,19.18,124q-3.36,3.33-6.44,3.33a5.12,5.12,0,0,1-2.06-.41A4.82,4.82,0,0,1,9,125.62c-.2.35-.33.58-.38.68a10.34,10.34,0,0,1-.89,1.7.93.93,0,0,1-.77.3,1.65,1.65,0,0,1-1.29-.79,1.79,1.79,0,0,1-.42-1.14q0-1.05,4.36-10.72A256,256,0,0,1,23.77,88.84q3.26-5.46,4-6.4c.53-.76,1-1.14,1.48-1.14a1.86,1.86,0,0,1,1.48.83,2,2,0,0,1,.41,1.25,4.3,4.3,0,0,1-.71,2c-.11.18-.9,1.48-2.39,3.9A145.2,145.2,0,0,0,18,106.79Zm-6.38,16.4a2.25,2.25,0,0,0,1.23.38q3.29,0,7-5.72a27.7,27.7,0,0,0,2.69-5.11,10.74,10.74,0,0,0,.87-3.37,1.61,1.61,0,0,0-.34-1.12,1.4,1.4,0,0,0-1.06-.36c-1.17,0-2.57.79-4.21,2.39a27,27,0,0,0-4.85,6.78c-.75,1.41-1.41,2.74-2,4l-.49,1A4.71,4.71,0,0,0,11.63,123.19Z"/><path class="cls-5" d="M31.68,119.4v.69a2.49,2.49,0,0,0,.42,1.44,3.49,3.49,0,0,0,3.11,1.4q4.73,0,10.94-7.28c.73-.83,1.35-1.25,1.86-1.25a1,1,0,0,1,.76.42,1,1,0,0,1,.22.57q0,1.47-3.63,5a28.06,28.06,0,0,1-6.06,4.51,12.75,12.75,0,0,1-6,1.74,5.51,5.51,0,0,1-4.47-2,5.77,5.77,0,0,1-1.1-3.71q0-6.4,6-12.54,4.88-5,8.52-5a2.85,2.85,0,0,1,1.78.61,2.53,2.53,0,0,1,1,2.08A9.78,9.78,0,0,1,43.2,111,19.74,19.74,0,0,1,31.68,119.4Zm.84-3a15.32,15.32,0,0,0,4.16-2,16.79,16.79,0,0,0,4.21-4.62,3.14,3.14,0,0,0,.57-1.63.65.65,0,0,0-.72-.75,5.32,5.32,0,0,0-2.81,1.47A19.46,19.46,0,0,0,32.52,116.45Z"/></g></g></svg>